<svg width="40" height="40" viewBox="0 0 40 40" fill="none" xmlns="http://www.w3.org/2000/svg">
<path d="M26.1828 21.1834C27.8168 19.8978 29.0095 18.1349 29.5949 16.1399C30.1803 14.145 30.1294 12.0172 29.4492 10.0525C28.7689 8.08783 27.4933 6.38403 25.7996 5.17814C24.106 3.97224 22.0786 3.32422 19.9995 3.32422C17.9204 3.32422 15.893 3.97224 14.1994 5.17814C12.5057 6.38403 11.2301 8.08783 10.5499 10.0525C9.86964 12.0172 9.81869 14.145 10.4041 16.1399C10.9895 18.1349 12.1822 19.8978 13.8162 21.1834C11.0163 22.3051 8.57332 24.1656 6.74766 26.5666C4.922 28.9675 3.78211 31.8189 3.44951 34.8167C3.42543 35.0356 3.4447 35.2571 3.50622 35.4685C3.56773 35.6799 3.67029 35.8771 3.80803 36.0489C4.0862 36.3959 4.49081 36.6181 4.93284 36.6667C5.37487 36.7153 5.81811 36.5864 6.16505 36.3082C6.51199 36.03 6.73422 35.6254 6.78284 35.1834C7.14881 31.9254 8.70232 28.9164 11.1465 26.7314C13.5908 24.5463 16.7543 23.3384 20.0328 23.3384C23.3113 23.3384 26.4749 24.5463 28.9191 26.7314C31.3634 28.9164 32.9169 31.9254 33.2828 35.1834C33.3282 35.5929 33.5236 35.9711 33.8314 36.2451C34.1391 36.519 34.5375 36.6692 34.9495 36.6667H35.1328C35.5697 36.6164 35.969 36.3955 36.2438 36.0521C36.5185 35.7087 36.6464 35.2706 36.5995 34.8334C36.2653 31.8271 35.1193 28.9684 33.2843 26.5637C31.4492 24.1591 28.9944 22.2992 26.1828 21.1834V21.1834ZM19.9995 20C18.681 20 17.392 19.6091 16.2957 18.8765C15.1994 18.144 14.3449 17.1028 13.8403 15.8846C13.3357 14.6664 13.2037 13.326 13.4609 12.0328C13.7182 10.7396 14.3531 9.55168 15.2855 8.61933C16.2178 7.68698 17.4057 7.05205 18.6989 6.79481C19.9921 6.53758 21.3326 6.6696 22.5507 7.17418C23.7689 7.67877 24.8101 8.53325 25.5426 9.62958C26.2752 10.7259 26.6662 12.0148 26.6662 13.3334C26.6662 15.1015 25.9638 16.7972 24.7136 18.0474C23.4633 19.2977 21.7676 20 19.9995 20Z" fill="white" fill-opacity="0.5"/>
</svg>