<svg width="40" height="40" viewBox="0 0 40 40" fill="none" xmlns="http://www.w3.org/2000/svg">
<g clip-path="url(#clip0_3807:49147)">
<path d="M34.5244 28.2368C33.246 28.2368 32.2059 27.1967 32.2059 25.9183V17.7644C32.2059 12.4535 28.796 7.92477 24.0509 6.25047V4.05078C24.051 1.81719 22.2338 0 20.0002 0C17.7666 0 15.9495 1.81719 15.9495 4.05078V6.25047C11.2044 7.92477 7.79447 12.4534 7.79447 17.7644V25.9183C7.79447 27.1967 6.75439 28.2368 5.47595 28.2368C4.82876 28.2368 4.30408 28.7615 4.30408 29.4087V33.9373C4.30408 34.5845 4.82876 35.1092 5.47595 35.1092H15.5508V35.5506C15.5508 38.004 17.5468 40 20.0002 40C22.4535 40 24.4495 38.004 24.4495 35.5506V35.1092H34.5244C35.1716 35.1092 35.6963 34.5845 35.6963 33.9373V29.4087C35.6963 28.7614 35.1716 28.2368 34.5244 28.2368ZM18.2932 4.05078C18.2932 3.10953 19.0589 2.34375 20.0002 2.34375C20.9414 2.34375 21.7072 3.10953 21.7072 4.05078V5.67859C21.1492 5.60016 20.5795 5.55867 20.0002 5.55867C19.4209 5.55867 18.8512 5.60016 18.2932 5.67859V4.05078ZM22.1058 35.5506C22.1058 36.7116 21.1612 37.6562 20.0002 37.6562C18.8392 37.6562 17.8945 36.7116 17.8945 35.5506V35.1092H22.1058V35.5506ZM32.9994 32.5H6.99939V30.4313C9.0047 29.9102 10.9994 28.0845 10.9994 25.9183V17.7644C10.9994 12.3265 14.5623 8.5 20.0002 8.5C25.4381 8.5 28.9994 12.3265 28.9994 17.7644V25.9183C28.9994 28.0845 30.9941 29.9102 32.9994 30.4313V32.5Z" fill="white" fill-opacity="0.5"/>
</g>
<defs>
<clipPath id="clip0_3807:49147">
<rect width="40" height="40" fill="white"/>
</clipPath>
</defs>
</svg>