<svg width="46" height="46" viewBox="0 0 46 46" fill="none" xmlns="http://www.w3.org/2000/svg">
<path d="M23.0007 36.416C23.3797 36.416 23.7503 36.3036 24.0655 36.093C24.3807 35.8824 24.6264 35.583 24.7714 35.2328C24.9165 34.8826 24.9544 34.4972 24.8805 34.1254C24.8065 33.7536 24.624 33.4121 24.3559 33.1441C24.0879 32.876 23.7464 32.6935 23.3746 32.6195C23.0028 32.5456 22.6174 32.5835 22.2672 32.7286C21.917 32.8736 21.6176 33.1193 21.407 33.4345C21.1964 33.7497 21.084 34.1203 21.084 34.4993C21.084 35.0077 21.2859 35.4952 21.6454 35.8546C22.0048 36.2141 22.4923 36.416 23.0007 36.416ZM32.584 36.416C32.9631 36.416 33.3336 36.3036 33.6488 36.093C33.964 35.8824 34.2097 35.583 34.3548 35.2328C34.4998 34.8826 34.5378 34.4972 34.4638 34.1254C34.3899 33.7536 34.2073 33.4121 33.9393 33.1441C33.6712 32.876 33.3297 32.6935 32.9579 32.6195C32.5861 32.5456 32.2007 32.5835 31.8505 32.7286C31.5003 32.8736 31.2009 33.1193 30.9903 33.4345C30.7797 33.7497 30.6673 34.1203 30.6673 34.4993C30.6673 35.0077 30.8693 35.4952 31.2287 35.8546C31.5881 36.2141 32.0757 36.416 32.584 36.416ZM32.584 28.7493C32.9631 28.7493 33.3336 28.6369 33.6488 28.4263C33.964 28.2157 34.2097 27.9164 34.3548 27.5662C34.4998 27.2159 34.5378 26.8306 34.4638 26.4588C34.3899 26.087 34.2073 25.7454 33.9393 25.4774C33.6712 25.2093 33.3297 25.0268 32.9579 24.9528C32.5861 24.8789 32.2007 24.9168 31.8505 25.0619C31.5003 25.207 31.2009 25.4526 30.9903 25.7678C30.7797 26.083 30.6673 26.4536 30.6673 26.8327C30.6673 27.341 30.8693 27.8285 31.2287 28.188C31.5881 28.5474 32.0757 28.7493 32.584 28.7493ZM23.0007 28.7493C23.3797 28.7493 23.7503 28.6369 24.0655 28.4263C24.3807 28.2157 24.6264 27.9164 24.7714 27.5662C24.9165 27.2159 24.9544 26.8306 24.8805 26.4588C24.8065 26.087 24.624 25.7454 24.3559 25.4774C24.0879 25.2093 23.7464 25.0268 23.3746 24.9528C23.0028 24.8789 22.6174 24.9168 22.2672 25.0619C21.917 25.207 21.6176 25.4526 21.407 25.7678C21.1964 26.083 21.084 26.4536 21.084 26.8327C21.084 27.341 21.2859 27.8285 21.6454 28.188C22.0048 28.5474 22.4923 28.7493 23.0007 28.7493ZM36.4173 5.74935H34.5007V3.83268C34.5007 3.32435 34.2987 2.83684 33.9393 2.47739C33.5798 2.11795 33.0923 1.91602 32.584 1.91602C32.0757 1.91602 31.5881 2.11795 31.2287 2.47739C30.8693 2.83684 30.6673 3.32435 30.6673 3.83268V5.74935L15.334 5.74935V3.83268C15.334 3.32435 15.1321 2.83684 14.7726 2.47739C14.4132 2.11795 13.9256 1.91602 13.4173 1.91602C12.909 1.91602 12.4215 2.11795 12.062 2.47739C11.7026 2.83684 11.5007 3.32435 11.5007 3.83268V5.74935L9.58398 5.74935C8.05899 5.74935 6.59645 6.35515 5.51812 7.43348C4.43979 8.51182 3.83398 9.97435 3.83398 11.4993L3.83398 38.3327C3.83398 39.8577 4.43979 41.3202 5.51812 42.3985C6.59645 43.4769 8.05899 44.0827 9.58398 44.0827L36.4173 44.0827C37.9423 44.0827 39.4049 43.4769 40.4832 42.3985C41.5615 41.3202 42.1673 39.8577 42.1673 38.3327L42.1673 11.4993C42.1673 9.97435 41.5615 8.51182 40.4832 7.43348C39.4049 6.35515 37.9423 5.74935 36.4173 5.74935ZM38.334 38.3327C38.334 38.841 38.1321 39.3285 37.7726 39.688C37.4132 40.0474 36.9257 40.2493 36.4173 40.2493L9.58398 40.2493C9.07565 40.2493 8.58814 40.0474 8.2287 39.688C7.86925 39.3285 7.66732 38.841 7.66732 38.3327L7.66732 21.0827L38.334 21.0827L38.334 38.3327ZM38.334 17.2493L7.66732 17.2493L7.66732 11.4993C7.66732 10.991 7.86925 10.5035 8.2287 10.1441C8.58814 9.78462 9.07565 9.58268 9.58398 9.58268H11.5007L11.5007 11.4993C11.5007 12.0077 11.7026 12.4952 12.062 12.8546C12.4215 13.2141 12.909 13.416 13.4173 13.416C13.9256 13.416 14.4132 13.2141 14.7726 12.8546C15.1321 12.4952 15.334 12.0077 15.334 11.4993V9.58268L30.6673 9.58268V11.4993C30.6673 12.0077 30.8693 12.4952 31.2287 12.8546C31.5881 13.2141 32.0757 13.416 32.584 13.416C33.0923 13.416 33.5798 13.2141 33.9393 12.8546C34.2987 12.4952 34.5007 12.0077 34.5007 11.4993V9.58268H36.4173C36.9257 9.58268 37.4132 9.78462 37.7726 10.1441C38.1321 10.5035 38.334 10.991 38.334 11.4993V17.2493ZM13.4173 28.7493C13.7964 28.7493 14.167 28.6369 14.4822 28.4263C14.7974 28.2157 15.043 27.9164 15.1881 27.5662C15.3332 27.2159 15.3711 26.8306 15.2972 26.4588C15.2232 26.087 15.0407 25.7454 14.7726 25.4774C14.5046 25.2093 14.163 25.0268 13.7912 24.9528C13.4194 24.8789 13.0341 24.9168 12.6838 25.0619C12.3336 25.207 12.0343 25.4526 11.8237 25.7678C11.6131 26.083 11.5007 26.4536 11.5007 26.8327C11.5007 27.341 11.7026 27.8285 12.062 28.188C12.4215 28.5474 12.909 28.7493 13.4173 28.7493ZM13.4173 36.416C13.7964 36.416 14.167 36.3036 14.4822 36.093C14.7974 35.8824 15.043 35.583 15.1881 35.2328C15.3332 34.8826 15.3711 34.4972 15.2972 34.1254C15.2232 33.7536 15.0407 33.4121 14.7726 33.1441C14.5046 32.876 14.163 32.6935 13.7912 32.6195C13.4194 32.5456 13.0341 32.5835 12.6838 32.7286C12.3336 32.8736 12.0343 33.1193 11.8237 33.4345C11.6131 33.7497 11.5007 34.1203 11.5007 34.4993C11.5007 35.0077 11.7026 35.4952 12.062 35.8546C12.4215 36.2141 12.909 36.416 13.4173 36.416Z" fill="white" fill-opacity="0.5"/>
</svg>