<svg xmlns="http://www.w3.org/2000/svg" viewBox="0 0 23.69 17.69"><defs><style>.cls-1{fill:#8f9bb3;}</style></defs><title>eye</title><g id="Layer_2" data-name="Layer 2"><g id="Layer_1-2" data-name="Layer 1"><path class="cls-1" d="M14.73,6a4,4,0,0,0-1.33-.88,4,4,0,0,0-1.57-.29,4,4,0,0,0-2.57,1l-.06.05L9.07,6l-.1.1,0,0a4,4,0,0,0,3,6.65H12a4,4,0,0,0,2.59-1l0,0,0,0,.18-.18.05-.06A4,4,0,0,0,14.73,6Zm-1,3.64A2,2,0,0,1,12,10.76a2.09,2.09,0,0,1-.79-.15,2,2,0,0,1,.69-3.83,1.93,1.93,0,0,1,.78.15A2,2,0,0,1,13.9,8.82,2,2,0,0,1,13.73,9.6Z"/><path class="cls-1" d="M23.58,8.55C23.41,8.2,19.22,0,11.67,0,5.62,0,1.44,5.76.12,8.22a1,1,0,0,0,0,.92c.17.35,4.36,8.59,11.91,8.55,5.73,0,10.23-5.76,11.56-8.22A1,1,0,0,0,23.58,8.55ZM12,15.69c-5.36.39-8.92-5.39-9.86-7,1-1.8,4.45-6.53,9.55-6.69,5.37-.17,8.92,5.39,9.86,7C20.51,10.8,17.19,15.31,12,15.69Z"/></g></g></svg>