<svg width="32" height="32" viewBox="0 0 32 32" fill="none" xmlns="http://www.w3.org/2000/svg">
<path d="M16 0C11.8982 0.0116995 7.95758 1.59826 4.992 4.432V1.6C4.992 1.17565 4.82343 0.768687 4.52337 0.468629C4.22331 0.168571 3.81635 0 3.392 0C2.96765 0 2.56069 0.168571 2.26063 0.468629C1.96057 0.768687 1.792 1.17565 1.792 1.6V8.8C1.792 9.22434 1.96057 9.63131 2.26063 9.93137C2.56069 10.2314 2.96765 10.4 3.392 10.4H10.592C11.0163 10.4 11.4233 10.2314 11.7234 9.93137C12.0234 9.63131 12.192 9.22434 12.192 8.8C12.192 8.37565 12.0234 7.96869 11.7234 7.66863C11.4233 7.36857 11.0163 7.2 10.592 7.2H6.752C8.80924 5.05017 11.5512 3.68425 14.5065 3.33707C17.4617 2.98989 20.4456 3.68316 22.945 5.29767C25.4445 6.91218 27.3034 9.34706 28.2021 12.1837C29.1008 15.0203 28.9832 18.0814 27.8695 20.8406C26.7557 23.5999 24.7154 25.8849 22.0994 27.3029C19.4834 28.7208 16.4552 29.1831 13.5353 28.6101C10.6154 28.0372 7.98634 26.4649 6.10014 24.1635C4.21394 21.8621 3.18846 18.9755 3.2 16C3.2 15.5756 3.03143 15.1687 2.73137 14.8686C2.43131 14.5686 2.02435 14.4 1.6 14.4C1.17565 14.4 0.768687 14.5686 0.468629 14.8686C0.168571 15.1687 0 15.5756 0 16C0 19.1645 0.938383 22.2579 2.69649 24.8891C4.45459 27.5203 6.95344 29.5711 9.87706 30.7821C12.8007 31.9931 16.0177 32.3099 19.1214 31.6926C22.2251 31.0752 25.0761 29.5513 27.3137 27.3137C29.5513 25.0761 31.0752 22.2251 31.6926 19.1214C32.3099 16.0177 31.9931 12.8007 30.7821 9.87706C29.5711 6.95344 27.5203 4.45459 24.8891 2.69649C22.2579 0.938383 19.1645 0 16 0Z" fill="white"/>
</svg>