<svg width="237" height="42" viewBox="0 0 237 42" fill="none" xmlns="http://www.w3.org/2000/svg">
<path d="M52.0316 21.3351V12.5851H64.2485V11.1189H50.5938V32.4662H52.0316V22.8013H63.0023V21.3351H52.0316Z" fill="white"/>
<path d="M72.8866 23.6223C72.8866 29.6043 76.1778 32.8415 80.8323 32.8415C85.5401 32.8415 88.7781 29.5339 88.7781 23.4581V11.1189H87.3402V23.6106C87.3402 28.7715 84.8159 31.3871 80.8856 31.3871C76.7849 31.3871 74.3245 28.49 74.3245 23.4581V11.1189H72.8866V23.6223Z" fill="white"/>
<path d="M105.447 32.5249V12.5851H112.189V11.1189H97.2777V12.5851H104.041V32.5249H105.447Z" fill="white"/>
<path d="M120.732 23.6223C120.732 29.6043 124.033 32.8415 128.688 32.8415C133.396 32.8415 136.634 29.5339 136.634 23.4581V11.1189H135.196V23.6106C135.196 28.7715 132.671 31.3871 128.741 31.3871C124.64 31.3871 122.18 28.49 122.18 23.4581V11.1189H120.732V23.6223Z" fill="white"/>
<path fill-rule="evenodd" clip-rule="evenodd" d="M154.304 23.6223L160.482 32.4662L162.26 32.4076L155.87 23.2822C159.129 22.8013 161.547 20.7604 161.547 17.1829C161.547 13.6172 158.799 11.1189 154.623 11.1189H146.475V32.4662H147.913V23.6223H154.304ZM154.581 12.5264C158.096 12.5264 160.141 14.3562 160.141 17.2181V17.2533C160.141 20.3264 157.691 22.1327 154.496 22.1327H147.956V12.5264H154.581Z" fill="white"/>
<path d="M170.973 11.1189V32.4662H184.905V31H172.411V22.4259H183.52V20.9715H172.411V12.5851H184.766V11.1189H170.973Z" fill="white"/>
<path fill-rule="evenodd" clip-rule="evenodd" d="M196.515 32.4662H204.929C209.115 32.4662 211.884 30.2142 211.884 26.6367V26.5781C211.884 23.6223 209.839 22.1562 207.507 21.4876C208.474 21.1372 209.314 20.4576 209.908 19.5469C210.501 18.6362 210.817 17.5414 210.809 16.4205V16.3619C210.809 13.1598 208.284 11.1189 204.514 11.1189H196.515V32.4662ZM204.493 12.5851C207.592 12.5851 209.339 14.1685 209.339 16.5144L209.328 16.573C209.328 19.4115 207.251 20.9715 204.343 20.9715H197.953V12.5851H204.493ZM204.503 22.4259C208.327 22.4259 210.404 23.9507 210.404 26.5781V26.6367C210.404 29.3228 208.306 31 204.982 31H197.942V22.4259H204.503Z" fill="white"/>
<path d="M228.692 32.4662V23.9859L237 11.1189H235.285L228 22.5784L220.746 11.1189H218.946L227.254 24.0211V32.4662H228.692Z" fill="white"/>
<path d="M12.366 10.228H29.7593C30.0718 10.2249 30.3705 10.0858 30.5901 9.84089L37.524 2.20512C37.6888 2.02466 37.8011 1.79431 37.8467 1.54335C37.8923 1.29239 37.8691 1.03218 37.78 0.795784C37.691 0.559393 37.5401 0.35751 37.3465 0.215809C37.153 0.0741083 36.9256 -0.00100883 36.6932 1.02328e-05H1.17163C0.8609 1.02328e-05 0.562893 0.135944 0.34317 0.377908C0.123448 0.619871 9.29218e-06 0.948044 9.29218e-06 1.29023V40.4074C-0.000916099 40.6634 0.0672963 40.9138 0.195972 41.1269C0.324648 41.34 0.507974 41.5062 0.722636 41.6043C0.937298 41.7024 1.1736 41.7279 1.40149 41.6777C1.62937 41.6275 1.83855 41.5038 2.00242 41.3223L10.8429 31.587C10.9515 31.4667 11.0376 31.3239 11.096 31.1669C11.1545 31.01 11.1843 30.8418 11.1837 30.6721V11.5182C11.1865 11.1749 11.3123 10.8468 11.5337 10.6051C11.7551 10.3635 12.0543 10.2279 12.366 10.228Z" fill="white"/>
<path d="M30.0886 17.7712H21.0884C20.914 17.7712 20.7414 17.8092 20.5805 17.8831C20.4195 17.9569 20.2735 18.0651 20.1507 18.2014C20.0279 18.3377 19.9308 18.4994 19.8651 18.6772C19.7993 18.855 19.7662 19.0454 19.7676 19.2374V29.1369C19.7692 29.4256 19.8482 29.7073 19.9946 29.9467C20.141 30.1862 20.3483 30.3727 20.5906 30.4829C20.8329 30.5932 21.0993 30.6222 21.3565 30.5663C21.6137 30.5105 21.8502 30.3723 22.0363 30.1691L31.0259 20.2696C31.2104 20.0646 31.3359 19.8041 31.3866 19.5209C31.4373 19.2377 31.411 18.9443 31.3109 18.6775C31.2108 18.4107 31.0414 18.1824 30.824 18.0212C30.6065 17.86 30.3507 17.773 30.0886 17.7712Z" fill="url(#paint0_linear_5856_14466)"/>
<defs>
<linearGradient id="paint0_linear_5856_14466" x1="20" y1="29.0786" x2="31.967" y2="18.6685" gradientUnits="userSpaceOnUse">
<stop stop-color="#66DCDB"/>
<stop offset="0.5" stop-color="#56AAD5"/>
<stop offset="1" stop-color="#626DCF"/>
</linearGradient>
</defs>
</svg>