<svg width="24" height="24" viewBox="0 0 24 24" fill="none" xmlns="http://www.w3.org/2000/svg">
<path d="M12 13.4133L8.46447 16.9489C8.07394 17.3394 7.44078 17.3394 7.05025 16.9489C6.65973 16.5583 6.65973 15.9252 7.05025 15.5346L10.5858 11.9991L7.05025 8.46357C6.65973 8.07305 6.65973 7.43988 7.05025 7.04936C7.44078 6.65883 8.07394 6.65883 8.46447 7.04936L12 10.5849L15.5355 7.04936C15.9261 6.65883 16.5592 6.65883 16.9497 7.04936C17.3403 7.43988 17.3403 8.07305 16.9497 8.46357L13.4142 11.9991L16.9497 15.5346C17.3403 15.9252 17.3403 16.5583 16.9497 16.9489C16.5592 17.3394 15.9261 17.3394 15.5355 16.9489L12 13.4133Z" fill="white"/>
</svg>