<svg width="30" height="30" viewBox="0 0 30 30" fill="none" xmlns="http://www.w3.org/2000/svg">
<g opacity="0.5">
<path d="M27.1363 25.3632L22.4988 20.7632C24.2989 18.5187 25.1707 15.6699 24.9348 12.8024C24.6989 9.93486 23.3734 7.26671 21.2307 5.34654C19.088 3.42637 16.291 2.40012 13.4149 2.47882C10.5388 2.55752 7.80218 3.73519 5.76771 5.76966C3.73323 7.80414 2.55557 10.5408 2.47687 13.4169C2.39817 16.293 3.42441 19.0899 5.34459 21.2326C7.26476 23.3753 9.93291 24.7009 12.8004 24.9367C15.6679 25.1726 18.5168 24.3009 20.7613 22.5007L25.3613 27.1007C25.4775 27.2179 25.6157 27.3109 25.7681 27.3743C25.9204 27.4378 26.0838 27.4705 26.2488 27.4705C26.4138 27.4705 26.5772 27.4378 26.7295 27.3743C26.8818 27.3109 27.0201 27.2179 27.1363 27.1007C27.3616 26.8677 27.4875 26.5562 27.4875 26.232C27.4875 25.9078 27.3616 25.5963 27.1363 25.3632ZM13.7488 22.5007C12.0182 22.5007 10.3265 21.9876 8.88754 21.0261C7.44861 20.0646 6.3271 18.6981 5.66484 17.0992C5.00257 15.5004 4.82929 13.741 5.16691 12.0437C5.50453 10.3464 6.33789 8.78726 7.5616 7.56355C8.78531 6.33984 10.3444 5.50648 12.0417 5.16886C13.7391 4.83124 15.4984 5.00452 17.0973 5.66679C18.6961 6.32906 20.0627 7.45057 21.0241 8.8895C21.9856 10.3284 22.4988 12.0201 22.4988 13.7507C22.4988 16.0714 21.5769 18.297 19.936 19.9379C18.295 21.5789 16.0694 22.5007 13.7488 22.5007Z" fill="#263238"/>
</g>
</svg>