<svg width="40" height="40" viewBox="0 0 40 40" fill="none" xmlns="http://www.w3.org/2000/svg">
<path d="M36.1833 33.817L30 27.6837C32.4001 24.691 33.5625 20.8925 33.248 17.0692C32.9335 13.2458 31.1661 9.6883 28.3092 7.12807C25.4522 4.56784 21.723 3.19951 17.8882 3.30445C14.0534 3.40938 10.4045 4.9796 7.69187 7.69223C4.97923 10.4049 3.40901 14.0537 3.30408 17.8885C3.19915 21.7233 4.56747 25.4526 7.1277 28.3095C9.68793 31.1664 13.2455 32.9339 17.0688 33.2483C20.8921 33.5628 24.6906 32.4005 27.6833 30.0003L33.8166 36.1337C33.9716 36.2899 34.1559 36.4139 34.359 36.4985C34.5621 36.5831 34.7799 36.6267 35 36.6267C35.22 36.6267 35.4378 36.5831 35.6409 36.4985C35.844 36.4139 36.0284 36.2899 36.1833 36.1337C36.4837 35.8229 36.6516 35.4076 36.6516 34.9753C36.6516 34.5431 36.4837 34.1278 36.1833 33.817ZM18.3333 30.0003C16.0258 30.0003 13.7702 29.3161 11.8516 28.0341C9.93307 26.7522 8.43772 24.9301 7.5547 22.7983C6.67168 20.6665 6.44064 18.3207 6.8908 16.0576C7.34096 13.7945 8.4521 11.7157 10.0837 10.0841C11.7153 8.45247 13.7941 7.34133 16.0572 6.89117C18.3204 6.44101 20.6661 6.67204 22.7979 7.55507C24.9297 8.43809 26.7518 9.93344 28.0338 11.852C29.3157 13.7706 30 16.0262 30 18.3337C30 21.4279 28.7708 24.3953 26.5829 26.5832C24.395 28.7712 21.4275 30.0003 18.3333 30.0003Z" fill="white" fill-opacity="0.5"/>
</svg>