<svg width="12" height="21" viewBox="0 0 12 21" fill="none" xmlns="http://www.w3.org/2000/svg">
<path d="M10.54 16C10.0253 16.2127 9.4766 16.3313 8.92 16.35C8.65374 16.379 8.38438 16.3465 8.13266 16.255C7.88095 16.1635 7.65359 16.0154 7.46811 15.8222C7.28262 15.629 7.14396 15.3958 7.06281 15.1406C6.98165 14.8853 6.96016 14.6149 7 14.35V8.12H11V5.12H7V0H4.08C4.04198 0.00254051 4.00634 0.0194588 3.98034 0.0473187C3.95434 0.0751786 3.93991 0.111891 3.94 0.15C3.87695 1.3338 3.47089 2.47369 2.7713 3.43074C2.07172 4.38779 1.10883 5.12065 0 5.54V8.12H2V14.66C2 16.89 3.65 20.07 8 20C9.47 20 11.11 19.36 11.47 18.83L10.54 16Z" fill="#13151A" fill-opacity="0.5"/>
</svg>