<svg width="48" height="40" viewBox="0 0 48 40" fill="none" xmlns="http://www.w3.org/2000/svg">
<path d="M43.3076 0H4.69238C2.10085 0 0 2.10085 0 4.69238V35.3076C0 37.8992 2.10085 40 4.69238 40H43.3076C45.8991 40 48 37.8992 48 35.3076V4.69238C48 2.10085 45.8991 0 43.3076 0Z" fill="#E0EAFF"/>
<path d="M29.9459 16.6109H25.9647V14.3532C25.9647 13.1866 26.0587 12.4717 27.7295 12.4717H29.8405V8.85927C28.813 8.75201 27.7805 8.69926 26.7474 8.70122C23.6806 8.70122 21.4454 10.5827 21.4454 14.0107V16.6109H18.0625V21.1264H21.4491V31.2864H25.9647V21.1264H29.4266L29.9459 16.6109Z" stroke="black" stroke-linecap="round" stroke-linejoin="round"/>
</svg>