<svg width="48" height="40" viewBox="0 0 48 40" fill="none" xmlns="http://www.w3.org/2000/svg">
<path d="M43.3076 0H4.69238C2.10085 0 0 2.10085 0 4.69238V35.3076C0 37.8992 2.10085 40 4.69238 40H43.3076C45.8991 40 48 37.8992 48 35.3076V4.69238C48 2.10085 45.8991 0 43.3076 0Z" fill="#E0EAFF"/>
<path d="M36.226 12.4185C35.325 12.8415 34.362 13.1172 33.3737 13.2351C34.4139 12.5962 35.2091 11.6261 35.6314 10.4806C34.6632 11.0797 33.593 11.4956 32.4743 11.7073C31.9862 11.1998 31.4023 10.7942 30.7564 10.5139C30.1105 10.2335 29.4154 10.0841 28.7114 10.0742C27.3883 10.0732 26.1187 10.5966 25.1807 11.5296C24.2427 12.4627 23.7127 13.7295 23.7067 15.0526C23.6848 15.4318 23.7191 15.8122 23.8083 16.1815C21.819 16.1017 19.8699 15.5962 18.0926 14.6991C16.3153 13.802 14.751 12.5341 13.5054 10.9811C13.0091 11.7426 12.7606 12.6391 12.7942 13.5474C12.8038 14.375 13.0143 15.1879 13.4076 15.9161C13.8009 16.6443 14.3652 17.2661 15.0519 17.728C14.2714 17.6458 13.5091 17.4387 12.7942 17.1147V17.2163C12.7839 18.3661 13.1746 19.4835 13.8992 20.3763C14.6237 21.2691 15.6368 21.8815 16.7641 22.1081C16.3345 22.2329 15.8905 22.3012 15.4433 22.3113C15.1333 22.3254 14.8231 22.2885 14.5251 22.2022C14.8231 23.2113 15.4422 24.0957 16.2883 24.7212C17.1345 25.3466 18.1616 25.679 19.2137 25.6678C17.4346 27.0474 15.2487 27.799 12.9974 27.8052C12.5871 27.8219 12.1763 27.7877 11.7744 27.7036C14.0556 29.1671 16.7066 29.9502 19.4169 29.9613C28.6888 29.9613 33.6785 22.3188 33.6785 15.696V15.0526C34.677 14.3325 35.5396 13.4406 36.226 12.4185" stroke="black" stroke-linecap="round" stroke-linejoin="round"/>
</svg>