<svg width="48" height="40" viewBox="0 0 48 40" fill="none" xmlns="http://www.w3.org/2000/svg">
<path d="M43.3076 0H4.69238C2.10085 0 0 2.10085 0 4.69238V35.3076C0 37.8992 2.10085 40 4.69238 40H43.3076C45.8991 40 48 37.8992 48 35.3076V4.69238C48 2.10085 45.8991 0 43.3076 0Z" fill="#E0EAFF"/>
<path d="M24.2141 9.36523C21.3938 9.36523 18.689 10.4856 16.6947 12.4799C14.7004 14.4741 13.5801 17.179 13.5801 19.9993C13.5801 22.8196 14.7004 25.5244 16.6947 27.5187C18.689 29.513 21.3938 30.6333 24.2141 30.6333C33.0834 30.6333 35.0815 22.3963 34.2499 18.2157H24.2104V21.7603H31.0664C30.6866 23.258 29.8281 24.5907 28.6216 25.5558C27.415 26.5209 25.9263 27.0656 24.3818 27.1071C22.8373 27.1487 21.3214 26.6848 20.0647 25.786C18.808 24.8872 17.8791 23.6026 17.4193 22.1276C16.9594 20.6525 16.9938 19.0677 17.5172 17.6139C18.0405 16.1602 19.0242 14.9171 20.3188 14.0736C21.6133 13.2302 23.1478 12.8325 24.6891 12.941C26.2303 13.0495 27.694 13.6582 28.8576 14.6747L31.375 12.1573C29.4216 10.3633 26.8664 9.36696 24.2141 9.36523V9.36523Z" stroke="black" stroke-linecap="round" stroke-linejoin="round"/>
</svg>