<svg width="24" height="24" viewBox="0 0 24 24" fill="none" xmlns="http://www.w3.org/2000/svg">
<path d="M22.2647 2.4268C21.9799 2.18994 21.6363 2.0347 21.2704 1.97761C20.9044 1.92052 20.5299 1.96371 20.1865 2.10259L2.26563 9.33794C1.88238 9.49563 1.55615 9.76613 1.33023 10.1136C1.10431 10.461 0.989397 10.8689 1.00073 11.2832C1.01207 11.6974 1.14913 12.0985 1.39371 12.433C1.63829 12.7676 1.97883 13.0198 2.37013 13.1563L5.99513 14.417L8.01563 21.0987C8.04309 21.1879 8.08293 21.2729 8.13401 21.3511C8.14176 21.3631 8.15269 21.372 8.16093 21.3837C8.21993 21.466 8.29124 21.5388 8.37236 21.5994C8.39543 21.617 8.41752 21.6335 8.44218 21.6491C8.53711 21.7121 8.64225 21.7581 8.75291 21.7852L8.76475 21.7862L8.77146 21.7891C8.83799 21.8026 8.90571 21.8095 8.97361 21.8096C8.98014 21.8096 8.98594 21.8065 8.99241 21.8064C9.09487 21.8046 9.19644 21.7869 9.2935 21.754C9.31608 21.7464 9.33543 21.7335 9.35734 21.7242C9.42972 21.6942 9.49829 21.6558 9.56163 21.6096C9.61235 21.5669 9.66309 21.5242 9.71385 21.4815L12.416 18.4981L16.4463 21.6201C16.8011 21.8964 17.2378 22.0465 17.6875 22.0469C18.1587 22.0463 18.6153 21.8837 18.9809 21.5864C19.3464 21.2892 19.5987 20.8752 19.6953 20.4141L22.958 4.39751C23.0319 4.03703 23.0065 3.66323 22.8844 3.3161C22.7622 2.96897 22.548 2.66158 22.2647 2.4268ZM9.37013 14.7354C9.23147 14.8735 9.13669 15.0495 9.09767 15.2413L8.78816 16.7453L8.0041 14.1522L12.0693 12.0352L9.37013 14.7354ZM17.6719 20.0391L12.9092 16.3496C12.7099 16.1957 12.46 16.1224 12.2091 16.1445C11.9583 16.1666 11.725 16.2824 11.5557 16.4688L10.6903 17.424L10.9961 15.9375L18.0791 8.85451C18.2482 8.68567 18.3512 8.46187 18.3695 8.22364C18.3878 7.9854 18.3201 7.7485 18.1788 7.55583C18.0375 7.36316 17.8319 7.22748 17.5991 7.17335C17.3664 7.11922 17.122 7.15023 16.9102 7.26076L6.74488 12.5534L3.02052 11.1905L20.999 3.99807L17.6719 20.0391Z" fill="white" fill-opacity="0.2"/>
</svg>