<svg width="20" height="23" viewBox="0 0 20 23" fill="none" xmlns="http://www.w3.org/2000/svg">
<path d="M18.6414 6.04677C17.9895 5.98215 17.3552 5.7949 16.7714 5.49468C16.6312 5.42145 16.4948 5.34119 16.3626 5.25419C15.9773 4.99759 15.624 4.6951 15.3103 4.35322C14.6957 3.65651 14.286 2.80013 14.1273 1.88064C14.0985 1.71484 14.0795 1.54744 14.0703 1.37935C14.0652 1.2775 14.0217 1.18148 13.9488 1.11095C13.8759 1.04043 13.7791 1.00073 13.6782 1H10.9134C10.8076 1 10.7062 1.04247 10.6314 1.11805C10.5566 1.19364 10.5146 1.29617 10.5146 1.40306V14.9514C10.5146 15.1377 10.5146 15.324 10.5146 15.5069C10.5146 15.5306 10.5146 15.551 10.5146 15.5747C10.5156 15.5848 10.5156 15.595 10.5146 15.6052C10.4784 16.1061 10.3202 16.5903 10.0542 17.0145C9.78815 17.4388 9.42252 17.7901 8.98979 18.0371C8.53934 18.2957 8.02994 18.4311 7.51189 18.43C6.70796 18.43 5.93696 18.1072 5.3685 17.5327C4.80003 16.9581 4.48068 16.1789 4.48068 15.3664C4.48068 14.5538 4.80003 13.7746 5.3685 13.2001C5.93696 12.6255 6.32653 12.6542 7.13045 12.6542C7.28757 12.6541 7.44445 12.6666 7.59963 12.6915C7.6572 12.6992 7.71575 12.6944 7.77132 12.6773C7.82688 12.6602 7.87817 12.6313 7.9217 12.5924C7.96523 12.5535 8 12.5057 8.02364 12.4521C8.04729 12.3984 8.05926 12.3403 8.05875 12.2816V9.5042C8.06003 9.40377 8.02384 9.30653 7.95739 9.23184C7.89095 9.15716 7.79911 9.11049 7.70017 9.10114C5.97486 8.96998 4.64858 9.17399 3.32282 10.2976C2.70783 10.8375 2.19069 11.4817 1.79464 12.2011C1.29386 13.1304 1.02146 14.1678 1.0004 15.2258C0.991875 16.0402 1.12108 16.8501 1.38244 17.6205C1.61356 18.265 1.93645 18.872 2.3409 19.4224C2.78157 19.9875 3.30212 20.4839 3.88583 20.8958C4.97621 21.6179 6.25184 22.0018 7.55545 22C8.4895 21.9993 9.41225 21.7936 10.2599 21.3971C11.0966 20.9976 11.8436 20.4293 12.455 19.7273C12.9637 19.1312 13.3683 18.452 13.6514 17.7187C13.908 16.981 14.0493 16.2073 14.0703 15.4256V8.77C14.0697 8.69676 14.0889 8.62475 14.1257 8.56169C14.1626 8.49864 14.2157 8.44692 14.2794 8.41209C14.3432 8.37727 14.4151 8.36065 14.4875 8.36404C14.5599 8.36742 14.63 8.39067 14.6903 8.43129C15.3552 8.82607 16.0715 9.12478 16.8183 9.31871C17.3941 9.45858 17.9803 9.55034 18.571 9.59306C18.6259 9.59727 18.681 9.58996 18.7329 9.57159C18.7848 9.55323 18.8325 9.52421 18.8727 9.48635C18.913 9.44849 18.9451 9.40262 18.967 9.35162C18.9889 9.30062 19.0002 9.24559 19 9.19V6.44645C18.9997 6.34682 18.9628 6.25084 18.8966 6.17703C18.8304 6.10322 18.7395 6.05682 18.6414 6.04677Z" stroke="#4E5159" stroke-width="2" stroke-miterlimit="10"/>
</svg>