<svg width="22" height="22" viewBox="0 0 22 22" fill="none" xmlns="http://www.w3.org/2000/svg">
<path d="M14.7437 12.5293C14.4516 12.2134 14.1235 11.9328 13.7662 11.6932C15.208 10.5785 16.2183 8.99813 16.625 7.22168C16.655 7.0933 16.6594 6.96026 16.6378 6.8302C16.6162 6.70014 16.5691 6.57563 16.4992 6.46384C16.4293 6.35205 16.338 6.25519 16.2305 6.17883C16.123 6.10246 16.0015 6.0481 15.8729 6.01887C15.7444 5.98965 15.6113 5.98613 15.4814 6.00852C15.3515 6.03092 15.2273 6.07879 15.1159 6.14937C15.0045 6.21995 14.9082 6.31186 14.8325 6.4198C14.7568 6.52774 14.7032 6.64958 14.6748 6.77832C14.4854 7.60929 14.117 8.38894 13.5953 9.0629C13.0737 9.73687 12.4113 10.2889 11.6543 10.6806V7.002C11.6481 6.92841 11.6335 6.85579 11.6106 6.78557C11.604 6.72775 11.5924 6.6706 11.5761 6.61474C11.5334 6.52379 11.4772 6.43987 11.4093 6.36583C11.3914 6.34459 11.3824 6.31658 11.3629 6.29693C11.2896 6.2293 11.2067 6.17299 11.1168 6.12987C11.0913 6.11626 11.0723 6.09325 11.0455 6.08187C10.9689 6.05635 10.8895 6.04001 10.809 6.03322C10.7594 6.01869 10.7086 6.00826 10.6572 6.00203L10.0029 6H10C9.76606 5.99888 9.53921 6.08021 9.35926 6.2297C9.17932 6.3792 9.05779 6.5873 9.016 6.81748C8.97422 7.04766 9.01486 7.2852 9.13078 7.4884C9.2467 7.6916 9.4305 7.84747 9.6499 7.92865V12.8193C8.06523 11.1743 7.01592 9.08799 6.64014 6.835C6.61821 6.70554 6.57099 6.58166 6.50119 6.47045C6.43138 6.35923 6.34036 6.26286 6.23331 6.18682C6.12626 6.11078 6.00528 6.05658 5.87728 6.02729C5.74928 5.99801 5.61676 5.99423 5.4873 6.01616C5.35784 6.03809 5.23396 6.08531 5.12275 6.15511C5.01153 6.22492 4.91516 6.31594 4.83912 6.42299C4.76308 6.53004 4.70888 6.65102 4.67959 6.77902C4.65031 6.90702 4.64653 7.03954 4.66846 7.169C5.25285 10.6516 7.19485 13.7601 10.0684 15.8125C10.1093 15.8371 10.1521 15.8586 10.1962 15.877C10.2308 15.8973 10.2667 15.9154 10.3036 15.9312C10.4153 15.9758 10.5341 15.9998 10.6543 16.002C10.8014 16.0002 10.9462 15.9654 11.0781 15.9001C11.0881 15.8954 11.0995 15.8976 11.1094 15.8926C11.1978 15.8466 11.2787 15.7875 11.3495 15.7173C11.3637 15.7035 11.3732 15.6865 11.3867 15.6718C11.4512 15.6009 11.505 15.521 11.5466 15.4346C11.5605 15.4059 11.5732 15.3785 11.5843 15.3484C11.6283 15.2381 11.652 15.1207 11.6543 15.002L11.6548 12.876C12.2744 13.0579 12.8327 13.4053 13.2695 13.8809L14.9175 15.6777C15.0061 15.7748 15.1131 15.8535 15.2322 15.9092C15.3513 15.9649 15.4802 15.9966 15.6115 16.0024C15.7429 16.0083 15.8741 15.9881 15.9977 15.9432C16.1212 15.8982 16.2347 15.8293 16.3316 15.7404C16.4285 15.6516 16.5069 15.5445 16.5624 15.4252C16.6178 15.306 16.6492 15.177 16.6547 15.0457C16.6603 14.9143 16.6398 14.7831 16.5946 14.6597C16.5493 14.5362 16.4802 14.4229 16.3911 14.3262L14.7437 12.5293ZM14.0728 0H7.9375C1.78027 0 0 1.77832 0 7.92676V14.0625C0 20.2197 1.77783 22 7.92725 22H14.0625C20.2197 22 22 20.2217 22 14.0732V7.9375C22 1.78027 20.2222 0 14.0728 0ZM20 14.0732C20 19.1133 19.1123 20 14.0625 20H7.92725C2.88623 20 2 19.1123 2 14.0625V7.92676C2 2.88672 2.8877 2 7.9375 2H14.0728C19.1138 2 20 2.8877 20 7.9375V14.0732Z" fill="#4E5159"/>
</svg>